<?xml version="1.0" encoding="UTF-8"?>
<svg id="Layer_2" data-name="Layer 2" xmlns="http://www.w3.org/2000/svg" viewBox="0 0 266.87 48.53">
  <defs>
    <style>
      .cls-1 {
        isolation: isolate;
      }

      .cls-2 {
        fill: #fff;
      }
    </style>
  </defs>
  <g id="Layer_1-2" data-name="Layer 1">
    <g>
      <g id="BALKAN">
        <g class="cls-1">
          <path class="cls-2" d="M13.53,41.49C5.11,41.49-.54,36.55.04,29.69l10.99-.04c-.13,1.73,1.56,2.98,3.69,2.98,1.56,0,2.85-.62,2.94-1.47.13-1.34-1.74-1.56-4.27-1.83-7.03-.71-13.04-2.85-12.37-10.59.62-7.08,7.25-11.66,15.71-11.66s14.29,4.81,13.71,11.44h-10.5c.18-1.51-1.38-2.58-3.52-2.58-1.47,0-2.72.53-2.8,1.29-.09,1.25,1.82,1.42,4.5,1.65,6.76.58,12.86,2.67,12.2,10.55-.62,7.25-7.74,12.06-16.78,12.06Z"/>
          <path class="cls-2" d="M46.64,28.32l-.18,2.14h11.39l-.89,9.92h-23.9l2.8-32.18h23.46l-.85,9.93h-10.95l-.18,1.82h9.17l-.71,8.37h-9.17Z"/>
          <path class="cls-2" d="M66.53,40.38l1.87-21.72h-8.06l.89-10.46h29.2l-.94,10.46h-8.06l-1.91,21.72h-13Z"/>
          <path class="cls-2" d="M112.42,8.2h13.04l-1.6,18.43c-.8,8.99-7.83,14.87-17.67,14.87s-15.89-5.88-15.09-14.87l1.6-18.43h13.04l-1.56,17.89c-.18,2,.36,4.14,2.94,4.41,2.05,0,3.52-1.69,3.74-4.41l1.56-17.89Z"/>
          <path class="cls-2" d="M126.93,40.38l2.8-32.18h13.04l-1.02,11.57,7.52-11.57h15.04l-11.39,15.22,8.5,16.96h-15.04l-5.3-12.73-1.11,12.73h-13.04Z"/>
          <path class="cls-2" d="M175.71,36.82l-1.11,3.56h-13.53l11.79-32.18h11.07l6.19,32.18h-5.64l-.45-3.56h-8.32ZM181.41,19.15l-2.63,8.72h3.69l-1.07-8.72Z"/>
        </g>
      </g>
      <g>
        <path class="cls-2" d="M186.02,40.43h8.09c2.23,0,4.04-1.8,4.04-4.03h0V8.11h-17.21l5.08,32.32ZM192.08,32.35c1.12,0,2.02.9,2.02,2.02s-.9,2.02-2.02,2.02c-1.11,0-2.01-.9-2.02-2.01,0-1.12.9-2.03,2.02-2.03Z"/>
        <polygon class="cls-2" points="239.91 35.25 240.16 32.41 238.7 35.25 239.91 35.25"/>
        <path class="cls-2" d="M247.14,34.7s0,0,0,0h.01s-18.87-15.31-18.87-15.31l-3.79,3.47c-3.7,3.39-9.45,3.15-12.85-.56-3.39-3.7-3.15-9.45.56-12.85l10.33-9.46h-10.58c-1.07,0-2.1.43-2.86,1.19l-6.91,6.9v28.28h2.31l11.43,10.35c3.46,2.81,8.55,2.29,11.37-1.18l.03-.03,2.26,1.96c2.01,1.64,4.97,1.33,6.6-.68,0,0,0,0,0,0l3.97-4.88.68.56c1.73,1.41,4.27,1.14,5.68-.58h0s1.2-1.49,1.2-1.49c1.41-1.73,1.15-4.28-.58-5.7ZM224.54,35.69l-2.37,1.64h3.5l-.27,3.11h-9.44l.22-2.44,5.06-3.69c.55-.41,1.09-.86,1.14-1.39.05-.41-.23-.69-.66-.69-.53,0-1.03.61-1.2,1.45l-3.8-.73c.39-2.44,2.64-4.2,5.39-4.2,2.55,0,4.5,1.59,4.31,3.78-.11,1.25-.95,2.5-1.89,3.16ZM237.45,38.34h-1.19l-.19,2.09h-4.56l.17-2.09h-5.12l.19-2.23,4.19-6.97h6.13l-.53,6.11h1.19l-.27,3.09Z"/>
        <path class="cls-2" d="M240.93,0h-10.85c-1.01,0-1.98.38-2.73,1.06l-12.42,11.37s-.03.04-.04.05c-2.02,1.88-2.14,5.04-.27,7.07,1.92,1.93,4.99,2.07,7.09.34.01-.01.04-.01.05-.03l10.09-9.25c.83-.75,2.1-.69,2.85.14.75.82.69,2.09-.13,2.84l-3.3,3.02,18.39,14.93c.36.3.69.62,1,.97V8.09l-6.9-6.9C243.03.43,242,0,240.93,0Z"/>
        <path class="cls-2" d="M254.74,8.11v28.28c0,2.23,1.8,4.04,4.03,4.04h8.1V8.11h-12.13ZM262.82,34.38c0,1.11-.91,2.01-2.02,2.02h0c-1.12,0-2.02-.91-2.02-2.02,0-1.12.91-2.02,2.02-2.02,1.12,0,2.02.91,2.02,2.02,0,0,0,0,0,0Z"/>
      </g>
    </g>
  </g>
</svg>