<svg width="385" height="386" viewBox="0 0 385 386" fill="none" xmlns="http://www.w3.org/2000/svg">
<path fill-rule="evenodd" clip-rule="evenodd" d="M176.388 0.873093H210.256C226.272 0.873093 239.256 13.8568 239.256 29.8731V128.066C239.256 138.559 247.762 147.066 258.256 147.066H304.794C320.81 147.066 333.794 160.05 333.794 176.066V210.909C333.794 226.925 320.81 239.909 304.794 239.909H256.801C247.111 239.909 239.256 247.764 239.256 257.454C239.256 267.145 247.111 275 256.801 275H355.977C371.993 275 384.977 287.984 384.977 304V356C384.977 372.016 371.993 385 355.977 385H235.324C234.96 385.083 234.581 385.127 234.192 385.127H176.388C160.371 385.127 147.388 372.143 147.388 356.127V258.909C147.388 248.415 138.881 239.909 128.388 239.909H81.8496C65.8333 239.909 52.8496 226.925 52.8496 210.909V176.066C52.8496 160.05 65.8333 147.066 81.8496 147.066H128.388C138.881 147.066 147.388 138.559 147.388 128.066V29.8731C147.388 13.8568 160.371 0.873093 176.388 0.873093ZM210.256 5.87309C223.511 5.87309 234.256 16.6183 234.256 29.8731V128.066C234.256 141.321 245.001 152.066 258.256 152.066H304.794C318.049 152.066 328.794 162.811 328.794 176.066V210.909C328.794 224.163 318.049 234.909 304.794 234.909H256.801C244.35 234.909 234.256 245.003 234.256 257.454C234.256 269.906 244.35 280 256.801 280H355.977C369.231 280 379.977 290.745 379.977 304V356C379.977 369.255 369.231 380 355.977 380H234.319C234.284 380 234.256 380.028 234.256 380.063C234.256 380.098 234.227 380.127 234.192 380.127H176.388C163.133 380.127 152.388 369.382 152.388 356.127V258.909C152.388 245.654 141.643 234.909 128.388 234.909H81.8496C68.5948 234.909 57.8496 224.163 57.8496 210.909V176.066C57.8496 162.811 68.5948 152.066 81.8496 152.066H128.388C141.643 152.066 152.388 141.321 152.388 128.066V29.8731C152.388 16.6183 163.133 5.87309 176.388 5.87309H210.256Z" fill="white"/>
<path fill-rule="evenodd" clip-rule="evenodd" d="M233.751 380.127H176.388C163.133 380.127 152.388 369.382 152.388 356.127V258.909C152.388 245.654 141.643 234.909 128.388 234.909H81.8496C68.5948 234.909 57.8496 224.163 57.8496 210.909V176.066C57.8496 162.811 68.5948 152.066 81.8496 152.066H128.388C141.643 152.066 152.388 141.321 152.388 128.066V29.8731C152.388 16.6183 163.133 5.87309 176.388 5.87309H210.256C223.51 5.87309 234.256 16.6183 234.256 29.8731V128.066C234.256 141.321 245.001 152.066 258.256 152.066H304.794C318.049 152.066 328.794 162.811 328.794 176.066V210.909C328.794 224.163 318.049 234.909 304.794 234.909H256.801C244.35 234.909 234.256 245.003 234.256 257.454C234.256 269.906 244.35 280 256.801 280H355.976C369.231 280 379.976 290.745 379.976 304V356C379.976 369.255 369.231 380 355.976 380H234.319C234.313 380 234.308 380 234.306 380.001C234.303 380.001 234.301 380.001 234.3 380.002L233.751 380.127ZM210.256 10.8731H176.388C165.894 10.8731 157.388 19.3797 157.388 29.8731V128.066C157.388 144.082 144.404 157.066 128.388 157.066H81.8496C71.3562 157.066 62.8496 165.573 62.8496 176.066V210.909C62.8496 221.402 71.3562 229.909 81.8496 229.909H128.388C144.404 229.909 157.388 242.892 157.388 258.909V356.127C157.388 366.62 165.894 375.127 176.388 375.127H233.188C233.551 375.044 233.93 375 234.319 375H355.976C366.47 375 374.976 366.493 374.976 356V304C374.976 293.507 366.47 285 355.976 285H256.801C241.588 285 229.256 272.667 229.256 257.454C229.256 242.241 241.588 229.909 256.801 229.909H304.794C315.287 229.909 323.794 221.402 323.794 210.909V176.066C323.794 165.573 315.287 157.066 304.794 157.066H258.256C242.239 157.066 229.256 144.082 229.256 128.066V29.8731C229.256 19.3797 220.749 10.8731 210.256 10.8731Z" fill="#FFB800"/>
<path fill-rule="evenodd" clip-rule="evenodd" d="M176.388 10.8731H210.256C220.749 10.8731 229.256 19.3797 229.256 29.8731V128.066C229.256 144.082 242.239 157.066 258.256 157.066H304.794C315.287 157.066 323.794 165.573 323.794 176.066V210.909C323.794 221.402 315.287 229.909 304.794 229.909H256.801C241.588 229.909 229.256 242.241 229.256 257.454C229.256 272.667 241.588 285 256.801 285H355.977C366.47 285 374.977 293.507 374.977 304V356C374.977 366.493 366.47 375 355.976 375H234.319C233.93 375 233.551 375.044 233.188 375.127H176.388C165.894 375.127 157.388 366.62 157.388 356.127V258.909C157.388 242.892 144.404 229.909 128.388 229.909H81.8496C71.3562 229.909 62.8496 221.402 62.8496 210.909V176.066C62.8496 165.573 71.3562 157.066 81.8496 157.066H128.388C144.404 157.066 157.388 144.082 157.388 128.066V29.8731C157.388 19.3797 165.894 10.8731 176.388 10.8731Z" fill="white"/>
<path d="M276.977 27C276.977 12.6406 288.617 1 302.977 1H358.977C373.336 1 384.977 12.6406 384.977 27V83C384.977 97.3594 373.336 109 358.977 109H302.977C288.617 109 276.977 97.3594 276.977 83V27Z" fill="#FFDD80"/>
<path d="M0.976562 27C0.976562 12.6406 12.6172 1 26.9766 1H82.9766C97.336 1 108.977 12.6406 108.977 27V83C108.977 97.3594 97.336 109 82.9766 109H26.9766C12.6172 109 0.976562 97.3594 0.976562 83V27Z" fill="white"/>
<path d="M0.976562 303C0.976562 288.641 12.6172 277 26.9766 277H82.9766C97.336 277 108.977 288.641 108.977 303V359C108.977 373.359 97.336 385 82.9766 385H26.9766C12.6172 385 0.976562 373.359 0.976562 359V303Z" fill="#FFB800"/>
<path fill-rule="evenodd" clip-rule="evenodd" d="M82.9766 287H26.9766C18.14 287 10.9766 294.163 10.9766 303V359C10.9766 367.837 18.14 375 26.9766 375H82.9766C91.8131 375 98.9766 367.837 98.9766 359V303C98.9766 294.163 91.8131 287 82.9766 287ZM26.9766 277C12.6172 277 0.976562 288.641 0.976562 303V359C0.976562 373.359 12.6172 385 26.9766 385H82.9766C97.336 385 108.977 373.359 108.977 359V303C108.977 288.641 97.336 277 82.9766 277H26.9766Z" fill="white"/>
<path d="M29.9766 331C29.9766 317.193 41.1694 306 54.9766 306C68.7837 306 79.9766 317.193 79.9766 331C79.9766 344.807 68.7837 356 54.9766 356C41.1694 356 29.9766 344.807 29.9766 331Z" fill="white"/>
<path fill-rule="evenodd" clip-rule="evenodd" d="M34.9766 331C34.9766 342.046 43.9309 351 54.9766 351C66.0223 351 74.9766 342.046 74.9766 331C74.9766 319.954 66.0223 311 54.9766 311C43.9309 311 34.9766 319.954 34.9766 331ZM54.9766 306C41.1694 306 29.9766 317.193 29.9766 331C29.9766 344.807 41.1694 356 54.9766 356C68.7837 356 79.9766 344.807 79.9766 331C79.9766 317.193 68.7837 306 54.9766 306Z" fill="#FFDD80"/>
</svg>
